<svg width="400" height="400" xmlns="http://www.w3.org/2000/svg" preserveAspectRatio="xMidYMid meet" version="1.0">

 <g>
  <title>Layer 1</title>
  <ellipse stroke="#000" ry="171.89186" rx="178.56804" id="svg_7" cy="206.00001" cx="202.50002" fill="#ffffff"/>
  <path id="svg_2" d="m174,16.49999c-21.6,3.1 -41,9.3 -60,19.1c-49.8,25.7 -84.9,72.2 -96.6,127.9c-3.5,16.5 -4.4,43.8 -2,60.8c12,85.2 78.9,150.4 163.8,159.6c54.2,5.9 108.6,-12.7 148,-50.7c73.6,-70.9 75.9,-187.6 5.3,-261.1c-29.7,-30.9 -67.4,-50.1 -109.2,-55.6c-13.5,-1.8 -37.3,-1.8 -49.3,0zm140,75.4l0,20.1l-10.7,0.1c-6,0.1 -19.8,0.4 -30.8,0.8l-20,0.6l-0.7,5c-1.2,8.4 -5.6,48.9 -7.4,68c-0.9,9.9 -1.7,27.2 -1.7,38.5c-0.2,17.5 0.1,21.4 1.7,27c4.1,14 10.8,23 20.2,27.5c11.9,5.7 19.1,4 29.9,-7c7.5,-7.6 9.9,-12.2 9,-17.6l-0.7,-3.9l6.4,0l6.4,0l-0.8,7.2c-2.9,24.3 -11.2,44.1 -23.9,56.7c-8.6,8.5 -17.8,12.1 -30.9,12.1c-24.2,0 -39.3,-17.7 -45.5,-53.4c-3.3,-19.2 -3,-29.7 2.4,-95.8c2.8,-33.9 5.1,-62.1 5.1,-62.7c0,-0.8 -9.7,-1.1 -31.9,-1.1l-31.8,0l-0.7,3.7c-0.3,2.1 -0.6,10 -0.6,17.6c0,29.5 -2.8,75.6 -5.6,93.7c-10,63.5 -19.1,88.2 -35.8,96.7c-6.7,3.4 -18.9,3.5 -25.6,0c-5.9,-3 -9,-8.8 -9,-16.8c0,-8.6 1.9,-13.1 12,-29.4c5.2,-8.3 11.9,-19.7 14.9,-25.5c4.9,-9.3 5.7,-11.7 7.3,-22c3,-19.1 11.3,-115.1 10.1,-117.3c-0.7,-1.3 -17.7,-0.7 -23.8,0.8c-7.9,2.1 -15,6.1 -19.1,10.9c-1.9,2.2 -6.1,8.6 -9.5,14.3l-6.1,10.3l-5.5,0l-5.5,0l0.7,-4.8c0.4,-2.6 2,-8.8 3.6,-13.9c10.2,-32 26.1,-49.7 50.9,-57c6.2,-1.8 40.8,-2.5 144.8,-3.1l58.2,-0.4l0,20.1z"/>
 </g>
</svg>