<?xml version="1.0" standalone="no"?>
<!DOCTYPE svg PUBLIC "-//W3C//DTD SVG 20010904//EN"
	"http://www.w3.org/TR/2001/REC-SVG-20010904/DTD/svg10.dtd">	
<svg version="1.0" xmlns="http://www.w3.org/2000/svg"
	width="400.000000pt" height="400.000000pt" viewBox="0 0 400.000000 400.000000"
	preserveAspectRatio="xMidYMid meet">

<g transform="translate(0.000000,400.000000) scale(0.100000,-0.100000)"
fill="#000000" stroke="none">
<path d="M1630 3260 c-375 -5 -475 -10 -515 -22 -198 -60 -339 -192 -440 -412
-37 -78 -95 -265 -95 -302 0 -22 4 -24 48 -24 l49 0 62 106 c102 172 176 229
334 254 71 12 181 9 195 -4 13 -14 -59 -896 -93 -1129 -23 -164 -25 -170 -77
-270 -30 -56 -96 -169 -148 -251 -51 -82 -100 -168 -108 -190 -16 -47 -18
-149 -3 -188 15 -40 61 -77 115 -93 136 -41 253 7 337 138 76 117 128 292 193
652 57 314 68 452 92 1156 l6 176 157 6 c86 4 234 7 329 7 l173 0 -6 -52 c-17
-158 -95 -1190 -95 -1272 0 -346 100 -640 255 -746 67 -46 119 -61 215 -61
173 1 290 68 391 224 72 111 132 298 153 475 l7 52 -56 0 -55 0 0 -58 c0 -54
-3 -62 -48 -117 -58 -72 -134 -132 -186 -146 -101 -28 -262 65 -324 188 -59
114 -74 239 -61 508 11 234 73 884 95 988 l6 27 309 0 309 0 0 58 c0 33 -3
120 -7 195 l-6 137 -521 -2 c-287 -1 -730 -5 -986 -8z"/>
</g>
</svg>
